<?xml version="1.0" standalone="no"?>
<!DOCTYPE svg PUBLIC "-//W3C//DTD SVG 20010904//EN"
 "http://www.w3.org/TR/2001/REC-SVG-20010904/DTD/svg10.dtd">
<svg version="1.0" xmlns="http://www.w3.org/2000/svg"
 width="240.000000pt" height="240.000000pt" viewBox="0 0 240.000000 240.000000"
 preserveAspectRatio="xMidYMid meet">
<metadata>
Created by potrace 1.11, written by Peter Selinger 2001-2013
</metadata>
<g transform="translate(0.000000,240.000000) scale(0.100000,-0.100000)"
fill="#000000" stroke="none">
<path d="M1018 2386 c-37 -7 -69 -14 -72 -17 -2 -2 2 -35 10 -72 7 -37 15 -80
16 -95 l2 -28 65 12 c95 18 297 10 396 -15 137 -36 299 -114 389 -190 112 -93
223 -233 280 -354 27 -58 64 -166 72 -212 3 -16 9 -47 13 -67 16 -70 5 -296
-18 -383 -20 -78 -67 -201 -82 -219 -13 -15 -175 158 -204 219 -24 49 -28 68
-30 177 -4 147 -14 198 -59 298 -42 94 -148 213 -240 268 -30 18 -87 45 -128
59 -62 22 -90 26 -193 26 -66 0 -129 -2 -140 -6 -11 -3 -27 -6 -35 -6 -8 -1
72 -88 178 -194 180 -180 192 -194 192 -229 0 -163 -199 -372 -369 -386 l-53
-5 -193 193 -192 192 -11 -54 c-6 -29 -9 -98 -8 -153 6 -192 95 -359 256 -483
56 -43 153 -85 255 -109 11 -3 70 -6 130 -7 128 -3 176 -15 233 -56 42 -30
187 -170 180 -174 -54 -36 -169 -76 -281 -100 -108 -22 -321 -14 -427 17 -110
31 -177 60 -269 115 -88 53 -114 74 -200 161 -122 124 -230 323 -256 472 -3
19 -10 51 -15 72 -11 52 -5 281 9 342 19 83 60 196 95 264 l33 65 108 -108
c59 -59 108 -106 110 -104 3 3 67 324 80 401 10 55 13 74 34 176 12 57 21 106
21 110 0 4 -73 -7 -162 -24 -171 -34 -376 -73 -418 -81 -71 -13 -86 -16 -102
-20 -13 -4 7 -29 83 -103 l100 -99 -55 -103 c-64 -121 -109 -249 -130 -369
-19 -111 -15 -337 8 -444 105 -486 489 -855 981 -940 104 -18 290 -18 394 0
399 70 731 329 898 699 33 73 76 211 87 280 14 83 14 311 1 395 -80 504 -478
906 -985 993 -100 17 -291 19 -382 3z"/>
</g>
</svg>
